# This file uses centimeters as units for non-parametric coordinates.

mtllib Rotaia2.mtl
g default
v 0.999999 -0.992951 0.008990
v 0.999999 -0.616594 0.008990
v -0.001179 -0.992951 0.008990
v -0.001179 -0.616594 0.008990
v 0.999999 0.008076 0.008990
v 0.999999 -0.368281 0.008990
v -0.001179 -0.368281 0.008990
v -0.001179 0.008076 0.008990
v 0.999999 -0.936503 0.508990
v 0.999999 -0.964727 0.501427
v 0.999999 -0.985389 0.480766
v 0.999999 -0.992951 0.452542
v -0.001179 -0.992951 0.452542
v -0.001179 -0.985389 0.480766
v -0.001179 -0.964727 0.501427
v -0.001179 -0.936503 0.508990
v 0.999999 -0.616594 0.452542
v 0.999999 -0.624156 0.480766
v 0.999999 -0.644818 0.501427
v 0.999999 -0.673042 0.508990
v -0.001179 -0.673042 0.508990
v -0.001179 -0.644818 0.501427
v -0.001179 -0.624156 0.480766
v -0.001179 -0.616594 0.452542
v 0.999999 0.008076 0.452542
v 0.999999 0.000514 0.480766
v 0.999999 -0.020148 0.501427
v 0.999999 -0.048372 0.508990
v -0.001179 -0.048372 0.508990
v -0.001179 -0.020148 0.501427
v -0.001179 0.000514 0.480766
v -0.001179 0.008076 0.452542
v 0.999999 -0.311834 0.508990
v 0.999999 -0.340058 0.501427
v 0.999999 -0.360719 0.480766
v 0.999999 -0.368281 0.452542
v -0.001179 -0.368281 0.452542
v -0.001179 -0.360719 0.480766
v -0.001179 -0.340058 0.501427
v -0.001179 -0.311834 0.508990
vt 0.451003 0.100492
vt 0.450898 0.001743
vt 0.713588 0.001465
vt 0.713693 0.100214
vt 0.713914 0.308721
vt 0.451224 0.308999
vt 0.451150 0.239872
vt 0.713841 0.239594
vt 0.713922 0.316388
vt 0.451232 0.316666
vt 0.713833 0.231927
vt 0.451142 0.232205
vt 0.713930 0.324054
vt 0.451240 0.324333
vt 0.713824 0.224260
vt 0.451134 0.224539
vt 0.448394 0.264155
vt 0.349645 0.264265
vt 0.349352 0.001575
vt 0.448101 0.001465
vt 0.209972 0.001730
vt 0.210265 0.264421
vt 0.141137 0.264498
vt 0.140845 0.001807
vt 0.217639 0.001722
vt 0.217932 0.264412
vt 0.133178 0.001816
vt 0.133471 0.264506
vt 0.225305 0.001713
vt 0.225598 0.264404
vt 0.125511 0.001825
vt 0.125804 0.264515
vt 0.713816 0.216594
vt 0.451126 0.216872
vt 0.714062 0.448101
vt 0.451371 0.448379
vt 0.451248 0.331999
vt 0.713938 0.331721
vt 0.001758 0.264653
vt 0.001465 0.001963
vt 0.117845 0.001833
vt 0.118137 0.264523
vt 0.233265 0.264395
vt 0.232972 0.001705
vn 0.000000 0.000000 -1.000000
vn 0.000000 0.000000 -1.000000
vn 0.000000 0.000000 -1.000000
vn 0.000000 0.000000 -1.000000
vn 0.000000 0.025918 0.999664
vn 0.000000 0.025918 0.999664
vn 0.000000 -0.025918 0.999664
vn 0.000000 -0.025918 0.999664
vn 0.000000 -1.000000 0.000000
vn 0.000000 -1.000000 0.000000
vn 0.000000 -0.999872 0.016028
vn 0.000000 -0.999872 0.016028
vn 0.000000 1.000000 0.000000
vn 0.000000 1.000000 0.000000
vn -0.000000 0.999872 0.016028
vn -0.000000 0.999872 0.016028
vn 0.000000 0.000000 -1.000000
vn 0.000000 0.000000 -1.000000
vn 0.000000 0.000000 -1.000000
vn 0.000000 0.000000 -1.000000
vn 0.000000 0.025918 0.999664
vn 0.000000 0.025918 0.999664
vn 0.000000 -0.025918 0.999664
vn 0.000000 -0.025918 0.999664
vn 0.000000 -1.000000 0.000000
vn 0.000000 -1.000000 0.000000
vn 0.000000 -0.999872 0.016028
vn 0.000000 -0.999872 0.016028
vn 0.000000 1.000000 0.000000
vn 0.000000 1.000000 0.000000
vn 0.000000 0.999872 0.016028
vn 0.000000 0.999872 0.016028
vn 0.000000 -0.866026 0.499999
vn 0.000000 -0.866026 0.499999
vn 0.000000 -0.707107 0.707107
vn 0.000000 -0.707107 0.707107
vn 0.000000 -0.258819 0.965926
vn 0.000000 -0.258819 0.965926
vn 0.000000 0.500000 0.866026
vn 0.000000 0.500000 0.866026
vn 0.000000 0.707106 0.707108
vn 0.000000 0.707106 0.707108
vn -0.000000 0.965926 0.258818
vn -0.000000 0.965926 0.258818
vn 0.000000 0.500000 0.866025
vn 0.000000 0.500000 0.866025
vn 0.000000 0.707107 0.707107
vn 0.000000 0.707107 0.707107
vn 0.000000 0.965926 0.258819
vn 0.000000 0.965926 0.258819
vn 0.000000 -0.866026 0.499999
vn 0.000000 -0.866026 0.499999
vn 0.000000 -0.707108 0.707106
vn 0.000000 -0.707108 0.707106
vn 0.000000 -0.258818 0.965926
vn 0.000000 -0.258818 0.965926
s off
g Rot2
usemtl lambert2SG
f 3/1/1 4/2/2 2/3/3 1/4/4
s 1
f 20/5/5 21/6/6 16/7/7 9/8/8
s 2
f 3/1/9 1/4/10 12/33/11 13/34/12
s 3
f 2/35/13 4/36/14 24/37/15 17/38/16
s off
f 7/17/17 8/18/18 5/19/19 6/20/20
s 4
f 28/21/21 29/22/22 40/23/23 33/24/24
s 5
f 7/39/25 6/40/26 36/41/27 37/42/28
s 6
f 5/19/29 8/18/30 32/43/31 25/44/32
s 2
f 12/33/11 11/15/33 14/16/34 13/34/12
f 11/15/33 10/11/35 15/12/36 14/16/34
s 1
f 10/11/37 9/8/8 16/7/7 15/12/38
f 20/5/5 19/9/39 22/10/40 21/6/6
f 19/9/39 18/13/41 23/14/42 22/10/40
s 3
f 18/13/43 17/38/16 24/37/15 23/14/44
s 4
f 28/21/21 27/25/45 30/26/46 29/22/22
f 27/25/45 26/29/47 31/30/48 30/26/46
s 6
f 26/29/49 25/44/32 32/43/31 31/30/50
s 5
f 36/41/27 35/31/51 38/32/52 37/42/28
f 35/31/51 34/27/53 39/28/54 38/32/52
s 4
f 34/27/55 33/24/24 40/23/23 39/28/56
